<?xml version="1.0" encoding="utf-8"?>
<!-- Generator: Adobe Illustrator 19.0.0, SVG Export Plug-In . SVG Version: 6.00 Build 0)  -->
<svg version="1.1" id="iconUser" xmlns="http://www.w3.org/2000/svg" xmlns:xlink="http://www.w3.org/1999/xlink" x="0px" y="0px"
	 viewBox="-169.4 234 45.4 45.4" style="enable-background:new -169.4 234 45.4 45.4;" xml:space="preserve">
<style type="text/css">
	.st0{fill:#FFFFFF;}
</style>
<path class="st0" d="M-145.2,278.1c6.5-0.4,11.3-1.5,18.2-5.7l-1.4-6.3c-0.5-0.5-1-0.8-1.6-1.2c-3.1-1.6-6.3-2.9-9.4-4.1
	c-0.2-0.1-0.5-0.3-0.6-0.5c-0.3-0.6-0.4-1.2-0.7-1.8c-0.1-0.4-0.2-0.7-0.7-0.9c-0.1,0-0.2-0.3-0.2-0.4c0-1.4-0.3-2.9,0.7-4.1
	c0,0,0-0.1,0-0.1c0.6-1.2,0.7-2.7,1.4-3.8c0,0,0,0,0,0c0.1-0.9,0.2-1.7,0.3-2.6c0-0.1-0.1-0.3-0.2-0.3c-0.6-0.2-0.3-0.8-0.5-1.2
	c0-0.6-0.1-1.2-0.1-1.8c0.3-1.5,0.3-3-0.8-4.1c-0.8-0.7-1.7-1.5-2.6-2.2c-0.4-0.4-0.5-0.7,0-1c0.2-0.2,0.4-0.3,0.6-0.5
	c0,0-0.1-0.1-0.1-0.2c-0.3,0-0.5,0-0.8,0c-1,0.1-2,0.3-2.9,0.5c-1.8,0.4-3.6,1-5.1,2.2c-1,0.8-1.8,1.8-1.9,3.2c0,0.7,0,1.4,0,2.1
	c0,1.2,0,0.9,0,2.1c0,0.2-0.1,0.5-0.2,0.6c-0.5,0.1-0.5,0.5-0.4,0.8c0,0.3,0,0.6,0.1,0.8c0.1,0.7,0.3,1.4,0.6,2.2
	c0.1,0.6,0.5,1,0.6,1.6c0.2,1.1,0.6,2.1,1.3,2.9c0.1,0.1,0.2,0.4,0.2,0.6c0,0.8-0.1,1.7-0.3,2.5c0,0.1-0.2,0.4-0.3,0.4
	c-0.6,0.1-0.7,0.6-0.8,1c-0.2,0.6-0.4,1.2-0.6,1.7c0,0.2-0.2,0.4-0.4,0.4c-1,0.4-2,0.8-3,1.3c-1.1,0.5-2.1,0.9-3.2,1.4
	c-1.1,0.5-2.1,1.1-3.2,1.6c-0.6,0.3-1.2,0.7-1.7,1.2l-1.4,6.2c6.5,4.3,10.8,5.1,18.3,5.8L-145.2,278.1z"/>
</svg>
