<?xml version="1.0" encoding="utf-8"?>
<!-- Generator: Adobe Illustrator 19.0.0, SVG Export Plug-In . SVG Version: 6.00 Build 0)  -->
<svg version="1.1" id="Capa_1" xmlns="http://www.w3.org/2000/svg" xmlns:xlink="http://www.w3.org/1999/xlink" x="0px" y="0px"
	 viewBox="161.3 232 50.7 50.7" style="enable-background:new 161.3 232 50.7 50.7;" xml:space="preserve">
<style type="text/css">
	.st0{fill:none;stroke:#FFFFFF;}
</style>
<g>
	<path class="st0" d="M196.2,236.6c-3.8,0-7.1,1.7-9.5,4.3c-2.4-2.7-5.8-4.3-9.5-4.3c-7.2,0-13,6.1-13,13.6c0,2,0.3,4,0.9,5.8
		c0,0,0.5,1.7,1,2.6c5.5,11.8,20.5,19.4,20.5,19.4s15.1-7.6,20.5-19.4c0,0,0.7-1.6,1-2.6c0.6-1.9,0.9-3.8,0.9-5.8
		C209.2,242.7,203.4,236.6,196.2,236.6z"/>
</g>
</svg>
