<?xml version="1.0" encoding="utf-8"?>
<!-- Generator: Adobe Illustrator 19.0.0, SVG Export Plug-In . SVG Version: 6.00 Build 0)  -->
<svg version="1.1" id="sports" xmlns="http://www.w3.org/2000/svg" xmlns:xlink="http://www.w3.org/1999/xlink" x="0px" y="0px"
	 viewBox="0 0 200 200" style="enable-background:new 0 0 200 200;" xml:space="preserve">
<style type="text/css">
	.st0{fill:#FFFFFF;stroke:#FFFFFF;stroke-width:2;stroke-miterlimit:10;}
</style>
<g id="XMLID_15_">
	<path id="XMLID_87_" class="st0" d="M7.7,99.9C6.4,51.1,48.5,7.8,99.3,7.7c50.6-0.2,91.1,39.9,92.9,87.3
		c2.2,56.6-41.3,96-89.4,97.3C48.7,193.8,7.4,150.3,7.7,99.9z M132.2,178.7c-0.1-0.2,0.8-1.2,1.5-2.2c3.2-4.4,6.5-8.8,9.7-13.1
		c2.2-3,4.3-6.1,6.5-9.1c0.7-0.1,1.5,0,2.1-0.2c8.6-3,17.1-6.1,25.7-9.2c0.7-0.3,1.6-0.9,1.9-1.6c6.6-12.3,10.5-25.5,10.8-39.6
		c0-0.9-0.6-2-1.3-2.5c-5.7-4.7-11.4-9.4-17.1-13.9c-2.5-2-5.1-3.7-4.3-7.5c0-0.1,0-0.2,0-0.2c-0.8-6.4-1.5-12.8-2.3-19.3
		c-0.5-3.8-0.9-7.6-1.4-11.4c3.9,0.6,7.8,1.1,11.7,1.7c-7.9-16.7-45-41.6-58.5-38.5c3.3,3.5,7,6.8,10.5,10.2c1.5,1.5,2.7,3.3,4,5
		c-0.5,0.2-1,0.4-1.5,0.6c-7.4,4.4-14.8,8.9-22.1,13.4c-1.2,0.7-2.1,1-3.5,0.5c-8.4-2.6-17-4.9-25.4-7.7c-4.1-1.4-5.4-1.1-6.2-1.7
		l-0.1-0.2c-0.2-0.7,0.3-2.7,1.1-5.9c0.1-0.4,0.2-0.8,0.3-1.2c0.9-4.1,1.8-8.2,2.7-12.4C58.2,14.6,24.6,41.3,20.5,57
		c4,0,8.2,0,12.3,0c3.9,0,6.4-0.8,8.4,3.3c2.1,10,4.1,19.9,6.2,29.9c0.1,0.5,0.5,0.9,0.5,1.1c-0.7,0.7-1.4,1.4-1.9,2.1
		c-5.1,6.3-10.2,12.7-15.3,19.1c-1.2,1.4-2.1,3-3.2,4.6c-6-5.7-12-11.3-17.9-16.9c-3,19.1,15,58.8,30.8,67.6
		c0.5-1.8,1.1-3.5,1.5-5.2c1.1-4,2.1-8,3.1-12c0.4,0.3,0.8,0.8,1.3,0.9c10,3.1,20,6.2,29.9,9.2c0.6,0.2,1.3,0,2,0
		c0.3,0.7,0.4,1.5,0.9,2.1c4.4,5.6,8.8,11.2,13.3,16.7c0.9,1.1,1.6,1.9,2.3,2.5c-6.2,1.6-12.4,3.2-19.3,5
		c19.8,6.3,53.1,3.5,62.7-5.1c-3.7-1.1-4.4-1.8-5.5-2.7L132.2,178.7z M26.6,114.6c6.2-7.7,12.1-14.9,17.8-22.2
		c0.7-0.9,1.1-2.5,0.9-3.6c-1.8-9.2-3.7-18.4-5.7-27.6c-0.2-0.7-1.2-1.8-1.9-1.8c-3.9-0.4-7.8-0.7-11.7-0.9
		c-4.7-0.3-7.7,1.7-9.5,6.2c-3.3,8.3-5.7,16.8-6.6,25.6c-0.3,2.6-1.2,5.7,1.1,8.1C16,103.8,21.3,109.1,26.6,114.6z M129.3,26.3
		c-5.2-5.3-10.1-10.4-15.1-15.4c-0.4-0.4-1.1-0.5-1.7-0.6c-5-0.2-9.9-0.6-14.9-0.4C92.4,10,87.2,10.7,82,11.3
		c-2.2,0.2-3.6,1.3-4.1,3.9c-0.8,4.6-2,9.2-3,13.8c-0.4,1.6,0,2.2,1.6,2.7c9.3,2.7,18.5,5.5,27.8,8.2c0.8,0.2,1.8,0.3,2.4-0.1
		C114.2,35.3,121.6,30.9,129.3,26.3z M91.3,181c-4.1-5.2-8.1-10-11.7-15c-2-2.7-4.4-4.2-7.5-5c-3.1-0.8-6.1-1.9-9.1-2.8
		c-5.5-1.7-10.9-3.3-16.6-5c-1.4,4.8-2.6,9.3-4,13.8c-0.6,1.8,0,2.9,1.3,3.9c8,6.1,16.7,10.8,26.2,14.3c1,0.4,2.2,0.6,3.2,0.4
		C79,184.2,85,182.6,91.3,181z M166,50.9c1.1,10,2.2,19.6,3.2,29.2c0.2,2,0.8,3.6,2.6,4.8c2.6,1.8,4.9,3.9,7.3,5.8
		c3.6,2.9,7.3,5.8,11.5,9.2c-0.3-3.7-0.4-6.8-0.7-9.9c-1.1-11.8-4.8-22.8-10.3-33.3c-1.5-2.8-3.5-4.5-6.5-4.9
		C170.8,51.5,168.6,51.2,166,50.9z M177.1,146.9c-8.7,3.1-16.7,6-24.7,8.9c-0.7,0.2-1.4,0.6-1.8,1.1c-5.4,7.1-10.7,14.3-16.2,21.7
		c2.7,1.4,5.1,2.9,8,1.3C156.7,172.1,168.5,161.6,177.1,146.9z"/>
	<path id="XMLID_74_" class="st0" d="M133.1,134.6c-3.6,0.2-7.1,0.2-10.7,0.5c-6.4,0.5-12.7,1.2-19.1,1.8c-2.7,0.2-5.4,0.4-8.1,0.5
		c-1-2.7-2-5.5-3.1-8.2c-3.8-9.2-7.6-18.4-11.3-27.4c2.6-2.1,5.2-4.2,7.7-6.3c6.6-5.5,13.1-11,19.6-16.6c1.2-1.1,2.1-1,3.3-0.3
		c10,6.3,20.1,12.5,30.3,19c-1.4,5.5-2.7,11.1-4.1,16.6c-1.5,5.9-3,11.7-4.4,17.6C133.1,132.7,133.1,133.7,133.1,134.6z M97.2,136
		c0.7-0.1,0.9-0.2,1.1-0.2c6.3-0.6,12.6-1.1,18.9-1.7c4.2-0.4,8.4-0.8,12.6-1.3c0.6-0.1,1.6-0.8,1.7-1.4c2.7-10.5,5.3-21,7.8-31.5
		c0.2-0.6-0.4-1.8-0.9-2.2c-9-5.7-18-11.3-27.1-17c-1.2-0.7-1.9-0.6-2.9,0.3c-7.4,6.3-14.9,12.6-22.4,18.9c-3.1,2.6-3.1,2.6-1.6,6.3
		c3.8,9.4,7.7,18.8,11.6,28.1C96.3,134.9,96.9,135.5,97.2,136z"/>
</g>
</svg>
